<svg width="23" height="23" viewBox="0 0 23 23" fill="none" xmlns="http://www.w3.org/2000/svg">
<path d="M6.77273 0C3.0386 0 0 3.00866 0 6.70599V15.9912C0 19.6885 3.0386 22.6972 6.77273 22.6972H16.1503C19.8845 22.6972 22.9231 19.6885 22.9231 15.9912V6.70599C22.9231 3.00866 19.8845 0 16.1503 0H6.77273ZM6.77273 1.03169H16.1503C19.3213 1.03169 21.8811 3.5663 21.8811 6.70599V15.9912C21.8811 19.1309 19.3213 21.6655 16.1503 21.6655H6.77273C3.6018 21.6655 1.04196 19.1309 1.04196 15.9912V6.70599C1.04196 3.5663 3.6018 1.03169 6.77273 1.03169ZM17.7133 4.12676C17.4369 4.12676 17.1719 4.23546 16.9765 4.42894C16.7811 4.62242 16.6713 4.88483 16.6713 5.15845C16.6713 5.43207 16.7811 5.69449 16.9765 5.88797C17.1719 6.08144 17.4369 6.19014 17.7133 6.19014C17.9896 6.19014 18.2547 6.08144 18.4501 5.88797C18.6455 5.69449 18.7552 5.43207 18.7552 5.15845C18.7552 4.88483 18.6455 4.62242 18.4501 4.42894C18.2547 4.23546 17.9896 4.12676 17.7133 4.12676ZM11.4615 5.6743C8.30269 5.6743 5.73077 8.22087 5.73077 11.3486C5.73077 14.4763 8.30269 17.0229 11.4615 17.0229C14.6204 17.0229 17.1923 14.4763 17.1923 11.3486C17.1923 8.22087 14.6204 5.6743 11.4615 5.6743ZM11.4615 6.70599C14.0573 6.70599 16.1503 8.77844 16.1503 11.3486C16.1503 13.9187 14.0573 15.9912 11.4615 15.9912C8.86581 15.9912 6.77273 13.9187 6.77273 11.3486C6.77273 8.77844 8.86581 6.70599 11.4615 6.70599Z" fill="white"/>
</svg>
