<svg width="27" height="26" viewBox="0 0 27 26" fill="none" xmlns="http://www.w3.org/2000/svg">
<path d="M22.9479 0H3.10107C1.38928 0 0 1.37559 0 3.07051V22.7217C0 24.4167 1.38928 25.7923 3.10107 25.7923H22.9479C24.6597 25.7923 26.0489 24.4167 26.0489 22.7217V3.07051C26.0489 1.37559 24.6597 0 22.9479 0ZM8.06277 9.82562V21.4935H4.34149V9.82562H8.06277ZM4.34149 6.42964C4.34149 5.5699 5.08575 4.91281 6.20213 4.91281C7.31851 4.91281 8.01936 5.5699 8.06277 6.42964C8.06277 7.28938 7.36813 7.98332 6.20213 7.98332C5.08575 7.98332 4.34149 7.28938 4.34149 6.42964ZM21.7075 21.4935H17.9862C17.9862 21.4935 17.9862 15.807 17.9862 15.3525C17.9862 14.1243 17.366 12.8961 15.8154 12.8716H15.7658C14.2649 12.8716 13.6447 14.1366 13.6447 15.3525C13.6447 15.9114 13.6447 21.4935 13.6447 21.4935H9.92341V9.82562H13.6447V11.3977C13.6447 11.3977 14.8417 9.82562 17.2481 9.82562C19.7104 9.82562 21.7075 11.5021 21.7075 14.8981V21.4935Z" fill="white"/>
</svg>
