<svg width="27" height="26" viewBox="0 0 27 26" fill="none" xmlns="http://www.w3.org/2000/svg">
<path d="M13.014 0C5.83532 0 0 5.78246 0 12.8961C0 15.0801 0.545585 17.2227 1.61609 19.1155L0.503851 23.1508C0.314937 23.7956 0.503605 24.4611 0.986383 24.9395C1.46916 25.4179 2.14118 25.6052 2.79188 25.4388L7.03177 24.3362C8.87892 25.293 10.9359 25.7923 13.0349 25.7923C20.2136 25.7923 26.049 20.0098 26.049 12.8961C26.049 9.44329 24.7056 6.2191 22.2498 3.78547C19.7729 1.35185 16.4984 0 13.014 0ZM13.014 1.24801C16.1626 1.24801 19.1221 2.45451 21.3261 4.65933C23.5511 6.86415 24.7896 9.7969 24.7686 12.8961C24.7686 19.3234 19.5 24.5442 13.014 24.5442C11.0619 24.5442 9.10965 24.0449 7.38844 23.1297C7.30448 23.0881 7.19986 23.0468 7.0949 23.0468C7.03193 23.0468 6.98979 23.0467 6.92682 23.0675L2.45571 24.2322C2.14085 24.3154 1.93128 24.1489 1.84732 24.0657C1.76335 23.9825 1.59527 23.7748 1.67923 23.4628L2.85461 19.1776C2.89659 19.0112 2.87584 18.8451 2.79188 18.6995C1.78434 16.9522 1.25942 14.9345 1.25942 12.8961C1.25942 6.46886 6.528 1.24801 13.014 1.24801ZM13.014 3.12003C7.57752 3.12003 3.14855 7.48807 3.14855 12.8961C3.14855 14.6225 3.61051 16.3074 4.47111 17.7842C4.80696 18.3666 4.89075 19.0528 4.72283 19.6976L4.11403 21.8817L6.46519 21.2788C6.6751 21.2164 6.885 21.1955 7.0949 21.1955C7.51471 21.1955 7.93435 21.2995 8.29119 21.5075C9.73953 22.2563 11.3558 22.6722 13.014 22.6722C18.4505 22.6722 22.8795 18.2834 22.8795 12.8961C22.8795 10.2753 21.8508 7.82071 19.9827 5.9695C18.1355 4.13908 15.6588 3.12003 13.014 3.12003ZM8.62695 7.21751H9.21485C9.44574 7.21751 9.67639 7.23831 9.90728 7.73751C10.1802 8.34072 10.7889 9.85922 10.8519 10.0048C10.9358 10.1504 10.9781 10.3375 10.8732 10.5455C10.7682 10.7535 10.7262 10.8783 10.5583 11.0655C10.4114 11.2527 10.2222 11.4611 10.0963 11.6067C9.94935 11.7523 9.78151 11.9187 9.97042 12.2307C10.1593 12.5427 10.7679 13.5409 11.6915 14.3521C12.8669 15.3922 13.8745 15.7251 14.1894 15.8707C14.5043 16.0163 14.6724 15.9954 14.8613 15.7874C15.0502 15.5794 15.6378 14.8929 15.8477 14.5809C16.0576 14.2689 16.2677 14.3314 16.5406 14.4354C16.8344 14.5394 18.3457 15.288 18.6605 15.4336C18.9754 15.5792 19.185 15.6626 19.248 15.7874C19.332 15.9538 19.3322 16.5569 19.0803 17.2849C18.8284 17.9921 17.569 18.6993 16.9813 18.7409C16.4145 18.7825 15.8895 18.9907 13.2657 17.9715C10.1172 16.7442 8.12327 13.5409 7.97634 13.3328C7.8294 13.1248 6.71691 11.6691 6.71691 10.1507C6.71691 8.63225 7.51438 7.90408 7.80825 7.59207C8.10211 7.28007 8.41705 7.21751 8.62695 7.21751Z" fill="white"/>
</svg>
